<svg xmlns="http://www.w3.org/2000/svg" xmlns:xlink="http://www.w3.org/1999/xlink" viewBox="0 0 622 378">
    <image xlink:href="../resources/splash-background.jpg" width="622" height="378"/>
    <g transform="translate(247 90) scale(0.128)">
        <!-- BEGIN ../icons/musescore-icon-round.svg -->
<linearGradient id="a" x2="1" gradientTransform="rotate(45 .5 .5)">
    <stop offset="0" stop-color="#148dbd"/>
    <stop offset=".5" stop-color="#1f74bd"/>
    <stop offset="1" stop-color="#1c5fb5"/>
</linearGradient>
<circle cx="500" cy="500" r="480" fill="url(#a)"/>
<path d="M686.4 225c-76.9 0-139.8 62.9-139.8 139.8h46.6c0-51.7 41.5-93.2 93.2-93.2s93.2 41.5 93.2 93.2h46.6c-.1-77-62.9-139.8-139.8-139.8zm0 116.4c-12.9 0-23.3 10.4-23.3 23.3s10.4 23.3 23.3 23.3 23.3-10.4 23.3-23.3c0-12.8-10.5-23.3-23.3-23.3zM290.3 388c-64.1 0-116.5 52.4-116.5 116.5v233h46.6v-233c0-38.9 31-69.9 69.9-69.9s69.9 31 69.9 69.9v233h46.6v-233c0-38.9 31-69.9 69.9-69.9s69.9 31 69.9 69.9v93.2c0 76.9 62.9 147.4 139.8 147.4s139.8-70.4 139.8-147.4V411.3h-46.6v186.4c0 51.7-41.5 105.3-93.2 105.3s-93.2-53.6-93.2-105.3v-93.2c0-64.1-52.4-116.5-116.5-116.5-38.2 0-71.9 18.9-93.2 47.5-21.3-28.6-55-47.5-93.2-47.5z" fill="#fff"/>
        <!-- END ../icons/musescore-icon-round.svg -->
    </g>
    <rect y="328" width="622" height="50" fill="#404756"/>
    <g transform="translate(14 275) scale(0.2)">
        <!-- BEGIN ../resources/cymbal.svg -->
<path d="M221.6 217.5c-21.3 0-38.5 17.2-38.5 38.5 0 10.6 4.3 20.3 11.3 27.2 7 7 16.6 11.3 27.2 11.3s20.3-4.3 27.2-11.3c7-7 11.3-16.6 11.3-27.2.1-21.3-17.2-38.5-38.5-38.5z" fill="#f95428"/>
<path d="M221.6 217.5c-6.5 0-12.7 1.6-18 4.5 12.2 6.5 20.5 19.3 20.5 34 0 10.6-4.3 20.3-11.3 27.2-2.7 2.7-5.8 5-9.2 6.8 5.4 2.9 11.5 4.5 18 4.5 10.6 0 20.3-4.3 27.2-11.3 7-7 11.3-16.6 11.3-27.2.1-21.3-17.2-38.5-38.5-38.5z" opacity=".25" fill="#4d4d4d"/>
<path d="M290.4 34.4C412.8 34.4 512 133.6 512 256c0 122.4-99.2 221.6-221.6 221.6-11.7 0-23.2-.9-34.4-2.6 106.1-16.5 187.3-108.3 187.3-219S362.1 53.5 256 37c11.2-1.7 22.7-2.6 34.4-2.6z" fill="#f7b239"/>
<path d="M264.6 34.4c122.4 0 221.6 99.2 221.6 221.6 0 122.4-99.2 221.6-221.6 221.6-11.7 0-23.2-.9-34.4-2.6 106.1-16.5 187.3-108.3 187.3-219S336.3 53.5 230.3 37c11.1-1.7 22.6-2.6 34.3-2.6z" opacity=".25" fill="#4d4d4d"/>
<path d="M256 37c-11.2-1.8-22.7-2.7-34.4-2.7C99.2 34.4 0 133.6 0 256c0 122.4 99.2 221.6 221.6 221.6 11.7 0 23.2-.9 34.4-2.6 106.1-16.5 187.3-108.3 187.3-219S362.1 53.5 256 37zm-34.4 180.5c21.3 0 38.5 17.2 38.5 38.5 0 10.6-4.3 20.3-11.3 27.2-7 7-16.6 11.3-27.2 11.3s-20.3-4.3-27.2-11.3c-7-7-11.3-16.6-11.3-27.2 0-21.3 17.3-38.5 38.5-38.5z" fill="#f7b239"/>
<path d="M221.6 386.6c-14.7 0-29.4-5.6-40.6-16.8-10.9-10.9-16.8-25.3-16.8-40.6s6-29.8 16.8-40.6l36.6-36.6c1.1-1.1 2.5-1.7 4.1-1.7s3 .6 4.1 1.7l36.6 36.6c22.4 22.4 22.4 58.9 0 81.3-11.3 11.1-26 16.7-40.8 16.7zm0-122.5l-32.5 32.5c-8.7 8.7-13.5 20.2-13.5 32.5s4.8 23.8 13.5 32.5c17.9 17.9 47.1 17.9 65.1 0s17.9-47.1 0-65.1l-32.6-32.4z" fill="#4d4d4d"/>
        <!-- END ../resources/cymbal.svg -->
    </g>
    <text x="309" y="260" fill="#fff" font-family="Raleway-SemiBold" font-size="36" text-anchor="middle">@MUSESCORE_NAME@</text>
    <text x="607" y="362" fill="#fff" font-family="Roboto-Bold" font-size="24" text-anchor="end">@MUSESCORE_VERSION_FULL@</text>
    <text x="326" y="360" fill="#fff" font-family="Roboto-Bold" font-size="18" text-anchor="middle">@BUILD@ BUILD - FOR TESTING ONLY</text>
</svg>
