<svg xmlns="http://www.w3.org/2000/svg" xmlns:xlink="http://www.w3.org/1999/xlink" viewBox="0 0 622 378">
    <image xlink:href="../resources/splashBackground.jpg" height="378" width="622" overflow="visible"/>
    <image xlink:href="../icons/musescore-icon-round.svg" y="93.7" x="248.6" preserveAspectRatio="none" height="125" width="125" image-rendering="optimizeSpeed"/>
    <path fill="#404756" d="M0 318h622v60H0z"/>
    <path d="M469.173 342.378h1.907l3.638 5.396 3.613-5.396h1.907l-4.64 6.873v6.249h-1.785v-6.249l-4.64-6.873zm-5.828 0h1.776v11.628h6.39v1.494h-8.166v-13.122zm-13.464 0h2.39l5.819 10.977v-10.977h1.722V355.5h-2.39l-5.819-10.978V355.5h-1.722v-13.122zm-8.842 1.204q-1.934 0-3.076 1.441-1.134 1.442-1.134 3.93 0 2.478 1.134 3.92 1.142 1.44 3.076 1.44 1.933 0 3.058-1.44 1.134-1.442 1.134-3.92 0-2.488-1.134-3.93-1.125-1.441-3.058-1.441zm0-1.441q2.76 0 4.412 1.854 1.652 1.846 1.652 4.957 0 3.103-1.652 4.957-1.652 1.846-4.412 1.846-2.769 0-4.43-1.846-1.652-1.846-1.652-4.957 0-3.111 1.652-4.957 1.661-1.854 4.43-1.854zm-16.067 11.487v-3.524h-2.9v-1.46h4.658v5.634q-1.028.73-2.267 1.108-1.24.369-2.646.369-3.076 0-4.816-1.793-1.732-1.802-1.732-5.01 0-3.217 1.732-5.01 1.74-1.801 4.816-1.801 1.283 0 2.435.316 1.16.316 2.135.932v1.89q-.984-.836-2.091-1.258-1.108-.421-2.33-.421-2.408 0-3.62 1.344-1.205 1.345-1.205 4.008 0 2.654 1.204 4 1.213 1.344 3.622 1.344.94 0 1.678-.158.739-.167 1.327-.51zm-22.412-11.25h2.39l5.82 10.977v-10.977h1.722V355.5h-2.39l-5.82-10.978V355.5h-1.722v-13.122zm-5.308 0h1.775V355.5h-1.775v-13.122zm-12.859 0h11.1v1.494h-4.657V355.5h-1.785v-11.628h-4.658v-1.494zm-1.775.43v1.732q-1.01-.483-1.907-.72-.897-.238-1.732-.238-1.45 0-2.241.563-.782.562-.782 1.6 0 .87.518 1.317.528.44 1.987.712l1.072.22q1.986.378 2.927 1.336.949.95.949 2.549 0 1.907-1.283 2.892-1.275.984-3.744.984-.932 0-1.987-.211-1.046-.211-2.17-.624v-1.828q1.08.606 2.117.914 1.038.307 2.04.307 1.52 0 2.346-.597.826-.598.826-1.705 0-.967-.597-1.512-.59-.545-1.943-.817l-1.08-.211q-1.987-.396-2.875-1.24-.887-.843-.887-2.346 0-1.74 1.221-2.742 1.23-1.002 3.384-1.002.923 0 1.88.167.959.167 1.96.5zm-19.222-.43h8.297v1.494h-6.521v3.885h6.249v1.494h-6.25v4.755h6.68v1.494h-8.455v-13.122zm-12.858 0h11.1v1.494h-4.658V355.5h-1.784v-11.628h-4.658v-1.494zm-10.204 6.97q.571.193 1.107.826.545.633 1.09 1.74l1.802 3.586h-1.908l-1.678-3.366q-.65-1.319-1.266-1.75-.606-.43-1.661-.43h-1.934v5.546h-1.775v-13.122h4.008q2.25 0 3.357.94 1.108.94 1.108 2.84 0 1.238-.58 2.056-.572.817-1.67 1.134zm-4.448-5.511v4.658h2.233q1.283 0 1.933-.589.66-.597.66-1.749 0-1.151-.66-1.731-.65-.59-1.933-.59h-2.233zm-10.617-.255q-1.933 0-3.076 1.441-1.134 1.442-1.134 3.93 0 2.478 1.134 3.92 1.143 1.44 3.076 1.44 1.934 0 3.059-1.44 1.134-1.442 1.134-3.92 0-2.488-1.134-3.93-1.125-1.441-3.059-1.441zm0-1.441q2.76 0 4.412 1.854 1.653 1.846 1.653 4.957 0 3.103-1.653 4.957-1.652 1.846-4.412 1.846-2.768 0-4.43-1.846-1.652-1.846-1.652-4.957 0-3.111 1.653-4.957 1.66-1.854 4.43-1.854zm-15.662.237h7.541v1.494h-5.765v3.867h5.203v1.494h-5.203v6.267h-1.776v-13.122zm-13.122 7.47h4.737v1.442h-4.737v-1.441zm-16.919-6.011v10.204h2.145q2.715 0 3.972-1.23 1.266-1.23 1.266-3.885 0-2.637-1.266-3.859-1.257-1.23-3.972-1.23h-2.145zm-1.775-1.46h3.647q3.815 0 5.599 1.592 1.784 1.582 1.784 4.957 0 3.392-1.793 4.983-1.793 1.591-5.59 1.591h-3.647v-13.122zm-10.02 0h1.776v11.629h6.39v1.494h-8.166v-13.122zm-5.308 0h1.775V355.5h-1.775v-13.122zm-13.386 0h1.784v7.973q0 2.109.765 3.04.764.923 2.478.923 1.705 0 2.47-.922.765-.932.765-3.041v-7.972h1.784v8.191q0 2.567-1.275 3.876-1.265 1.31-3.744 1.31-2.487 0-3.762-1.31-1.265-1.31-1.265-3.876v-8.191zm-10.362 6.856v4.808h2.847q1.433 0 2.118-.589.695-.598.695-1.82 0-1.23-.695-1.81-.685-.589-2.118-.589h-2.847zm0-5.396v3.955h2.627q1.301 0 1.934-.483.642-.493.642-1.495 0-.993-.642-1.485-.633-.492-1.934-.492h-2.627zm-1.776-1.46h4.535q2.03 0 3.13.845 1.098.843 1.098 2.4 0 1.203-.563 1.915-.562.712-1.652.888 1.31.281 2.03 1.178.73.887.73 2.223 0 1.758-1.196 2.716-1.195.958-3.4.958h-4.712v-13.122zm-7.321 16.111v1.257h-9.352v-1.257h9.352zm-9 0v1.257h-9.352v-1.257h9.352zm-9 0v1.257h-9.352v-1.257h9.352zm-9 0v1.257h-9.352v-1.257h9.352zm-9 0v1.257h-9.352v-1.257h9.352zm-9 0v1.257h-9.352v-1.257h9.352zm-9 0v1.257h-9.352v-1.257h9.352z" font-size="18" font-family="Roboto-Bold" fill="#fff"/>
    <image xlink:href="../resources/cymbal.svg" y="270.139" x="27.241" width="100" height="100" overflow="visible"/>
    <g font-size="36" font-family="Raleway-SemiBold" fill="#fff">
        <path d="M409.132 245.628v1.582H394.26q.21 3.34 2.004 5.098 1.81 1.74 5.027 1.74 1.863 0 3.603-.457 1.758-.457 3.481-1.371v3.058q-1.74.739-3.568 1.125-1.829.387-3.71.387-4.71 0-7.47-2.742-2.742-2.742-2.742-7.418 0-4.834 2.601-7.664 2.62-2.848 7.05-2.848 3.972 0 6.275 2.567 2.32 2.548 2.32 6.943zm-3.235-.95q-.035-2.654-1.494-4.236-1.441-1.582-3.832-1.582-2.707 0-4.342 1.53-1.617 1.529-1.863 4.306l11.531-.017zm-16.294-5.062q-.545-.316-1.196-.457-.633-.158-1.406-.158-2.742 0-4.219 1.793-1.459 1.775-1.459 5.115v10.371h-3.252v-19.687h3.252v3.058q1.02-1.793 2.655-2.654 1.634-.879 3.972-.879.334 0 .738.053.405.035.897.123l.018 3.322zm-25.788-.756q-2.601 0-4.113 2.04-1.512 2.02-1.512 5.554 0 3.533 1.495 5.572 1.511 2.022 4.13 2.022 2.584 0 4.096-2.04 1.512-2.038 1.512-5.554 0-3.498-1.512-5.537-1.512-2.057-4.096-2.057zm0-2.742q4.22 0 6.627 2.742 2.409 2.743 2.409 7.594 0 4.834-2.409 7.594-2.408 2.742-6.627 2.742-4.236 0-6.644-2.742-2.39-2.76-2.39-7.594 0-4.851 2.39-7.594 2.408-2.742 6.644-2.742zm-13.218 1.23v3.024q-1.371-.756-2.76-1.125-1.371-.387-2.777-.387-3.147 0-4.887 2.004-1.74 1.987-1.74 5.59 0 3.604 1.74 5.608 1.74 1.986 4.887 1.986 1.406 0 2.777-.37 1.389-.386 2.76-1.142v2.988q-1.354.633-2.813.95-1.441.316-3.076.316-4.447 0-7.066-2.795-2.62-2.795-2.62-7.54 0-4.817 2.637-7.577 2.654-2.76 7.26-2.76 1.494 0 2.918.317 1.424.298 2.76.914zm-21.217-6.45v3.462q-2.022-.966-3.815-1.441-1.793-.475-3.462-.475-2.9 0-4.483 1.125-1.564 1.125-1.564 3.2 0 1.74 1.037 2.636 1.054.88 3.972 1.424l2.145.44q3.973.755 5.853 2.671 1.899 1.899 1.899 5.098 0 3.815-2.567 5.783-2.548 1.97-7.488 1.97-1.863 0-3.972-.423-2.092-.422-4.342-1.248v-3.656q2.162 1.213 4.236 1.828t4.078.615q3.041 0 4.694-1.195 1.652-1.195 1.652-3.41 0-1.934-1.195-3.024-1.178-1.09-3.885-1.634l-2.162-.422q-3.973-.791-5.748-2.479-1.776-1.687-1.776-4.693 0-3.48 2.444-5.485 2.46-2.003 6.767-2.003 1.846 0 3.762.334t3.92 1.001zm-21.111 14.73v1.582h-14.872q.211 3.34 2.004 5.098 1.81 1.74 5.028 1.74 1.863 0 3.603-.457 1.758-.457 3.48-1.371v3.058q-1.74.739-3.568 1.125-1.828.387-3.709.387-4.71 0-7.47-2.742-2.743-2.742-2.743-7.418 0-4.834 2.602-7.664 2.62-2.848 7.049-2.848 3.972 0 6.275 2.567 2.32 2.548 2.32 6.943zm-3.235-.95q-.035-2.654-1.494-4.236-1.441-1.582-3.832-1.582-2.707 0-4.342 1.53-1.617 1.529-1.863 4.306l11.531-.017zm-19.828-7.505v3.058q-1.371-.703-2.848-1.054-1.476-.352-3.058-.352-2.408 0-3.621.739-1.196.738-1.196 2.214 0 1.125.862 1.776.861.633 3.463 1.213l1.107.246q3.445.738 4.887 2.092 1.459 1.335 1.459 3.744 0 2.742-2.18 4.341-2.162 1.6-5.959 1.6-1.582 0-3.305-.316-1.705-.3-3.603-.914v-3.34q1.793.931 3.533 1.406 1.74.457 3.445.457 2.286 0 3.516-.773 1.23-.791 1.23-2.215 0-1.319-.896-2.022-.879-.703-3.885-1.353l-1.125-.264q-3.006-.633-4.342-1.934-1.336-1.318-1.336-3.603 0-2.777 1.97-4.29 1.968-1.51 5.59-1.51 1.792 0 3.374.263 1.582.264 2.918.79zM249.47 248.51v-11.918h3.234v11.795q0 2.795 1.09 4.2 1.09 1.39 3.27 1.39 2.619 0 4.13-1.67 1.53-1.67 1.53-4.553v-11.162h3.234v19.687h-3.234v-3.023q-1.178 1.793-2.743 2.672-1.546.861-3.603.861-3.393 0-5.15-2.11-1.758-2.109-1.758-6.17zm-30.533-18.475h5.29l6.698 17.86 6.732-17.86h5.291v26.244h-3.463v-23.045l-6.767 18h-3.569l-6.767-18v23.045h-3.445v-26.244z"/>
    </g>
    <g font-size="27" font-family="Roboto-Bold" fill="#fff">
        <path d="M604.957 338.32q-2.057 0-3.099 2.03-1.028 2.018-1.028 6.078 0 4.048 1.028 6.078 1.042 2.017 3.099 2.017 2.07 0 3.098-2.017 1.041-2.03 1.041-6.078 0-4.06-1.041-6.077-1.029-2.03-3.098-2.03zm0-2.11q3.309 0 5.049 2.624 1.753 2.61 1.753 7.594 0 4.97-1.753 7.594-1.74 2.61-5.05 2.61-3.309 0-5.062-2.61-1.74-2.624-1.74-7.594 0-4.983 1.74-7.594 1.753-2.623 5.063-2.623zm-14.291 16.691h2.781v3.349h-2.781v-3.349zm-9.124-7.264q1.912.409 2.98 1.7 1.081 1.293 1.081 3.191 0 2.914-2.004 4.51-2.004 1.594-5.695 1.594-1.24 0-2.558-.25-1.305-.237-2.702-.725v-2.571q1.107.646 2.425.976 1.319.33 2.756.33 2.505 0 3.81-.99 1.318-.988 1.318-2.874 0-1.74-1.226-2.716-1.213-.988-3.388-.988h-2.294v-2.189h2.4q1.964 0 3.005-.778 1.042-.79 1.042-2.267 0-1.516-1.081-2.32-1.068-.818-3.072-.818-1.094 0-2.347.237-1.252.238-2.755.739v-2.373q1.516-.422 2.834-.633 1.332-.211 2.505-.211 3.032 0 4.799 1.384 1.767 1.371 1.767 3.718 0 1.635-.936 2.769-.936 1.12-2.664 1.555z"/>
    </g>
</svg>
