<?xml version="1.0" encoding="utf-8"?>
<!-- Generator: Adobe Illustrator 22.1.0, SVG Export Plug-In . SVG Version: 6.00 Build 0)  -->
<svg version="1.1" id="Layer_1" xmlns="http://www.w3.org/2000/svg" xmlns:xlink="http://www.w3.org/1999/xlink" x="0px" y="0px"
	 viewBox="0 0 512 512" style="enable-background:new 0 0 512 512;" xml:space="preserve">
<path style="fill:#F95428;" d="M221.6,217.5c-21.3,0-38.5,17.2-38.5,38.5c0,10.6,4.3,20.3,11.3,27.2c7,7,16.6,11.3,27.2,11.3
	s20.3-4.3,27.2-11.3c7-7,11.3-16.6,11.3-27.2C260.2,234.7,242.9,217.5,221.6,217.5z"/>
<path style="opacity:0.25;fill:#4D4D4D;enable-background:new    ;" d="M221.6,217.5c-6.5,0-12.7,1.6-18,4.5
	c12.2,6.5,20.5,19.3,20.5,34c0,10.6-4.3,20.3-11.3,27.2c-2.7,2.7-5.8,5-9.2,6.8c5.4,2.9,11.5,4.5,18,4.5c10.6,0,20.3-4.3,27.2-11.3
	c7-7,11.3-16.6,11.3-27.2C260.2,234.7,242.9,217.5,221.6,217.5z"/>
<path style="fill:#F7B239;" d="M290.4,34.4C412.8,34.4,512,133.6,512,256c0,122.4-99.2,221.6-221.6,221.6c-11.7,0-23.2-0.9-34.4-2.6
	v0c106.1-16.5,187.3-108.3,187.3-219S362.1,53.5,256,37C267.2,35.3,278.7,34.4,290.4,34.4z"/>
<path style="opacity:0.25;fill:#4D4D4D;enable-background:new    ;" d="M264.6,34.4c122.4,0,221.6,99.2,221.6,221.6
	c0,122.4-99.2,221.6-221.6,221.6c-11.7,0-23.2-0.9-34.4-2.6v0c106.1-16.5,187.3-108.3,187.3-219S336.3,53.5,230.3,37
	C241.4,35.3,252.9,34.4,264.6,34.4z"/>
<path style="fill:#F7B239;" d="M256,37C256,37,256,37,256,37c-11.2-1.8-22.7-2.7-34.4-2.7C99.2,34.4,0,133.6,0,256
	c0,122.4,99.2,221.6,221.6,221.6c11.7,0,23.2-0.9,34.4-2.6c106.1-16.5,187.3-108.3,187.3-219S362.1,53.5,256,37z M221.6,217.5
	c21.3,0,38.5,17.2,38.5,38.5c0,10.6-4.3,20.3-11.3,27.2c-7,7-16.6,11.3-27.2,11.3s-20.3-4.3-27.2-11.3c-7-7-11.3-16.6-11.3-27.2
	C183.1,234.7,200.4,217.5,221.6,217.5z"/>
<path style="fill:#4D4D4D;" d="M221.6,386.6c-14.7,0-29.4-5.6-40.6-16.8c-10.9-10.9-16.8-25.3-16.8-40.6s6-29.8,16.8-40.6l36.6-36.6
	c1.1-1.1,2.5-1.7,4.1-1.7s3,0.6,4.1,1.7l36.6,36.6c22.4,22.4,22.4,58.9,0,81.3C251.1,381,236.4,386.6,221.6,386.6z M221.6,264.1
	l-32.5,32.5c-8.7,8.7-13.5,20.2-13.5,32.5c0,12.3,4.8,23.8,13.5,32.5c17.9,17.9,47.1,17.9,65.1,0s17.9-47.1,0-65.1l0,0L221.6,264.1z
	"/>
</svg>
