<svg xmlns="http://www.w3.org/2000/svg" viewBox="0 0 652.29 520.09">
    <path id="mu" d="M512.51 0C435.6 0 372.74 62.86 372.74 139.78h46.59a93.18 93.18 0 1 1 186.36 0h46.6C652.29 62.86 589.43 0 512.51 0zm0 116.48a23.3 23.3 0 1 0 23.3 23.3 23.3 23.3 0 0 0-23.3-23.3zm-396 46.59C52.43 163.07 0 215.5 0 279.55v233h46.59v-233a69.89 69.89 0 0 1 139.78 0v233H233v-233a69.89 69.89 0 1 1 139.78 0v93.19c0 76.91 62.86 147.35 139.77 147.35s139.78-70.44 139.78-147.35V186.37h-46.6v186.37c0 51.72-41.45 105.3-93.18 105.3s-93.18-53.58-93.18-105.3v-93.19c0-64.05-52.43-116.48-116.48-116.48-38.17 0-71.91 18.86-93.19 47.46-21.32-28.6-55.05-47.46-93.22-47.46z"/>
</svg>
