<svg xmlns="http://www.w3.org/2000/svg" viewBox="0 0 652.29 520.09"><defs><style>.cls-1{fill:#fff;}</style></defs><title>mu</title><g id="Layer_2" data-name="Layer 2"><g id="musescore-icon-round"><path id="mu" class="cls-1" d="M512.51,0C435.6,0,372.74,62.86,372.74,139.78h46.59a93.18,93.18,0,1,1,186.36,0h46.6C652.29,62.86,589.43,0,512.51,0Zm0,116.48a23.3,23.3,0,1,0,23.3,23.3A23.3,23.3,0,0,0,512.51,116.48Zm-396,46.59C52.43,163.07,0,215.5,0,279.55v233H46.59v-233a69.89,69.89,0,0,1,139.78,0v233H233v-233a69.89,69.89,0,1,1,139.78,0v93.19c0,76.91,62.86,147.35,139.77,147.35s139.78-70.44,139.78-147.35V186.37h-46.6V372.74c0,51.72-41.45,105.3-93.18,105.3s-93.18-53.58-93.18-105.3V279.55c0-64.05-52.43-116.48-116.48-116.48-38.17,0-71.91,18.86-93.19,47.46C188.38,181.93,154.65,163.07,116.48,163.07Z"/></g></g></svg>