<?xml version="1.0" encoding="UTF-8" standalone="no"?>
<svg
   xmlns:dc="http://purl.org/dc/elements/1.1/"
   xmlns:cc="http://creativecommons.org/ns#"
   xmlns:rdf="http://www.w3.org/1999/02/22-rdf-syntax-ns#"
   xmlns:svg="http://www.w3.org/2000/svg"
   xmlns="http://www.w3.org/2000/svg"
   height="264"
   width="336"
   id="svg3"
   version="1.1"
   viewBox="0 0 336.00001 263.99998">
  <metadata
     id="metadata9">
    <rdf:RDF>
      <cc:Work
         rdf:about="">
        <dc:format>image/svg+xml</dc:format>
        <dc:type
           rdf:resource="http://purl.org/dc/dcmitype/StillImage" />
        <dc:title></dc:title>
      </cc:Work>
    </rdf:RDF>
  </metadata>
  <defs
     id="defs7" />
  <path
     style="stroke-width:0.5150767"
     d="m 263.98197,0 c -39.61455,0 -71.99227,32.37772 -71.99227,71.99742 h 23.99742 a 47.99485,47.99485 0 1 1 95.9897,0 h 24.00258 c 0,-39.61971 -32.37773,-71.99742 -71.99743,-71.99742 z m 0,59.99613 a 12.001288,12.001288 0 1 0 12.00129,12.00129 12.001288,12.001288 0 0 0 -12.00129,-12.00129 z m -203.97038,23.99743 c -33.00612,0 -60.01159,27.00547 -60.01159,59.99613 v 120.01288 h 23.99742 v -120.01288 a 35.998715,35.998715 0 0 1 71.99743,0 v 120.01288 h 24.01803 v -120.01288 a 35.998712,35.998712 0 1 1 71.99742,0 v 48 c 0,39.61456 32.37772,75.89655 71.99228,75.89655 39.61455,0 71.99742,-36.28199 71.99742,-75.89656 v -95.99484 h -24.00258 v 95.99484 c 0,26.63977 -21.34993,54.23758 -47.99484,54.23758 -26.64492,0 -47.99485,-27.59781 -47.99485,-54.23758 v -48 c 0,-32.99066 -27.00548,-59.99613 -59.99614,-59.99613 -19.66048,0 -37.03917,9.71434 -48,24.44554 -10.98144,-14.7312 -28.35497,-24.44554 -48.01545,-24.44554 z"
     id="mu" />
</svg>
