<svg xmlns="http://www.w3.org/2000/svg" xmlns:xlink="http://www.w3.org/1999/xlink" viewBox="0 0 500 500">
    <linearGradient id="a" gradientUnits="userSpaceOnUse" x1="4480.316" y1="-36751.508" x2="4480.316" y2="-39127.332" gradientTransform="matrix(.06732 0 0 -.0147 -51.638 -98.45)">
        <stop offset="0" stop-opacity="0"/>
        <stop offset=".5"/>
        <stop offset="1" stop-opacity="0"/>
    </linearGradient>
    <path opacity=".3" fill="url(#a)" d="M91 441.8h318v34.9H91z"/>
    <radialGradient id="b" cx="-5423.16" cy="-37925.25" r="1145.926" gradientTransform="matrix(-.02304 0 0 -.0147 -34.644 -98.45)" gradientUnits="userSpaceOnUse">
        <stop offset="0"/>
        <stop offset="1" stop-opacity="0"/>
    </radialGradient>
    <path d="M91 441.8v34.9c-11.6.1-28.1-7.8-28.1-17.5 0-9.6 13-17.4 28.1-17.4z" opacity=".3" fill="url(#b)"/>
    <radialGradient id="c" cx="18969.981" cy="-37925.25" r="1145.926" gradientTransform="matrix(.02304 0 0 -.0147 -27.372 -98.45)" gradientUnits="userSpaceOnUse">
        <stop offset="0"/>
        <stop offset="1" stop-opacity="0"/>
    </radialGradient>
    <path d="M409 441.8v34.9c11.6.1 28.1-7.8 28.1-17.5 0-9.6-13-17.4-28.1-17.4z" opacity=".3" fill="url(#c)"/>
    <g>
        <linearGradient id="d" gradientUnits="userSpaceOnUse" x1="249.136" y1="-8.565" x2="249.136" y2="451.441" gradientTransform="matrix(.8075 0 0 -.8948 48.822 430.974)">
            <stop offset="0" stop-color="#aaa"/>
            <stop offset="1" stop-color="#c8c8c8"/>
        </linearGradient>
        <path d="M79.5 31.6h234.4c13.7 4.6 87.3 57.5 106.6 94.2v336.3h-341V31.6z" fill="#fff" stroke="url(#d)" stroke-linejoin="round"/>
        <radialGradient id="e" cx="1158.947" cy="1055.778" r="1365.34" gradientTransform="matrix(.3684 0 0 .3997 -38.454 -363.76)" gradientUnits="userSpaceOnUse">
            <stop offset="0" stop-opacity=".281"/>
            <stop offset=".189" stop-opacity=".078"/>
            <stop offset=".257" stop-opacity=".023"/>
            <stop offset=".301" stop-opacity="0"/>
            <stop offset="1" stop-color="#e1e2e3" stop-opacity="0"/>
        </radialGradient>
        <path d="M83.1 460.5c-2 0-3.6-1.8-3.6-3.9V34.3c0-2.2.7-2.7 2.7-2.7 40.4.6 154.8 0 232.9.5C368 62.8 408 107 420 124.3c2.4 44.8.5 334.9.5 334.9 0 2.2-1.9 2.8-5.8 2.8l-331.6-1.5z" fill="url(#e)"/>
        <linearGradient id="f" gradientUnits="userSpaceOnUse" x1="343.525" y1="409.82" x2="377.684" y2="435.469" gradientTransform="matrix(.9977 0 0 -1.0407 .037 527.227)">
            <stop offset="0" stop-color="#fefefe"/>
            <stop offset="1" stop-color="#cbcbcb"/>
        </linearGradient>
        <path d="M289.8 32c27 0 32.6 61.4 31.4 77.8-.2 2.3 1.8 4.3 4.1 4.1 19.6-1.2 95-2.6 94.3 36.7.2-11.2.9-15.7.6-23.9-9.7-25.7-87-88.5-105.7-92.7" fill="url(#f)"/>
    </g>
    <g>
        <path fill="none" d="M79.5 371.3h341V431h-341z"/>
        <text x="155.223" y="428.299" font-size="76" font-family="Roboto-Bold" text-anchor="middle" fill="#989898">
            @TYPE@
        </text>
        <image xlink:href="../icons/musescore-icon-round.svg" width="240" height="240" preserveAspectRatio="none" x="132.5" y="105" image-rendering="optimizeSpeed"/>
    </g>
</svg>
