<svg xmlns="http://www.w3.org/2000/svg" xmlns:xlink="http://www.w3.org/1999/xlink" viewBox="0 0 500 500">
    <linearGradient id="a" gradientUnits="userSpaceOnUse" x1="4480.316" y1="-36751.508" x2="4480.316" y2="-39127.332" gradientTransform="matrix(.06732 0 0 -.0147 -51.638 -98.45)">
        <stop offset="0" stop-opacity="0"/>
        <stop offset=".5"/>
        <stop offset="1" stop-opacity="0"/>
    </linearGradient>
    <path opacity=".3" fill="url(#a)" d="M91 441.8h318v34.9H91z"/>
    <radialGradient id="b" cx="-5423.16" cy="-37925.25" r="1145.926" gradientTransform="matrix(-.02304 0 0 -.0147 -34.644 -98.45)" gradientUnits="userSpaceOnUse">
        <stop offset="0"/>
        <stop offset="1" stop-opacity="0"/>
    </radialGradient>
    <path d="M91 441.8v34.9c-11.6.1-28.1-7.8-28.1-17.5 0-9.6 13-17.4 28.1-17.4z" opacity=".3" fill="url(#b)"/>
    <radialGradient id="c" cx="18969.981" cy="-37925.25" r="1145.926" gradientTransform="matrix(.02304 0 0 -.0147 -27.372 -98.45)" gradientUnits="userSpaceOnUse">
        <stop offset="0"/>
        <stop offset="1" stop-opacity="0"/>
    </radialGradient>
    <path d="M409 441.8v34.9c11.6.1 28.1-7.8 28.1-17.5 0-9.6-13-17.4-28.1-17.4z" opacity=".3" fill="url(#c)"/>
    <g>
        <linearGradient id="d" gradientUnits="userSpaceOnUse" x1="249.136" y1="-8.565" x2="249.136" y2="451.441" gradientTransform="matrix(.8075 0 0 -.8948 48.822 430.974)">
            <stop offset="0" stop-color="#aaa"/>
            <stop offset="1" stop-color="#c8c8c8"/>
        </linearGradient>
        <path d="M79.5 31.6h234.4c13.7 4.6 87.3 57.5 106.6 94.2v336.3h-341V31.6z" fill="#fff" stroke="url(#d)" stroke-linejoin="round"/>
        <radialGradient id="e" cx="1158.947" cy="1055.778" r="1365.34" gradientTransform="matrix(.3684 0 0 .3997 -38.454 -363.76)" gradientUnits="userSpaceOnUse">
            <stop offset="0" stop-opacity=".281"/>
            <stop offset=".189" stop-opacity=".078"/>
            <stop offset=".257" stop-opacity=".023"/>
            <stop offset=".301" stop-opacity="0"/>
            <stop offset="1" stop-color="#e1e2e3" stop-opacity="0"/>
        </radialGradient>
        <path d="M83.1 460.5c-2 0-3.6-1.8-3.6-3.9V34.3c0-2.2.7-2.7 2.7-2.7 40.4.6 154.8 0 232.9.5C368 62.8 408 107 420 124.3c2.4 44.8.5 334.9.5 334.9 0 2.2-1.9 2.8-5.8 2.8l-331.6-1.5z" fill="url(#e)"/>
        <linearGradient id="f" gradientUnits="userSpaceOnUse" x1="343.525" y1="409.82" x2="377.684" y2="435.469" gradientTransform="matrix(.9977 0 0 -1.0407 .037 527.227)">
            <stop offset="0" stop-color="#fefefe"/>
            <stop offset="1" stop-color="#cbcbcb"/>
        </linearGradient>
        <path d="M289.8 32c27 0 32.6 61.4 31.4 77.8-.2 2.3 1.8 4.3 4.1 4.1 19.6-1.2 95-2.6 94.3 36.7.2-11.2.9-15.7.6-23.9-9.7-25.7-87-88.5-105.7-92.7" fill="url(#f)"/>
    </g>
    <g>
        <g fill="#989898">
            <path d="M163.7 374.3l13.9 39.2 13.8-39.2H206v54h-11.2v-14.8L196 388l-14.6 40.3h-7.6l-14.5-40.2 1.1 25.5v14.8h-11.1v-54h14.4zM243.8 414.1c0-2.1-.7-3.7-2.2-4.8-1.5-1.1-4.2-2.3-8-3.6-3.9-1.2-6.9-2.5-9.2-3.7-6.1-3.3-9.2-7.8-9.2-13.4 0-2.9.8-5.5 2.5-7.8 1.6-2.3 4-4.1 7.1-5.4 3.1-1.3 6.5-1.9 10.4-1.9 3.9 0 7.3.7 10.3 2.1 3 1.4 5.4 3.4 7 5.9 1.7 2.5 2.5 5.4 2.5 8.7h-11.1c0-2.5-.8-4.4-2.3-5.8s-3.7-2.1-6.6-2.1c-2.7 0-4.8.6-6.3 1.7-1.5 1.2-2.3 2.7-2.3 4.5 0 1.8.9 3.2 2.7 4.4 1.8 1.2 4.4 2.3 7.8 3.3 6.3 1.9 10.9 4.3 13.8 7.1 2.9 2.8 4.3 6.3 4.3 10.5 0 4.7-1.8 8.3-5.3 11-3.5 2.7-8.3 4-14.3 4-4.2 0-7.9-.8-11.4-2.3s-6-3.6-7.8-6.3c-1.8-2.6-2.7-5.7-2.7-9.2h11.2c0 6 3.6 8.9 10.7 8.9 2.6 0 4.7-.5 6.2-1.6s2.2-2.2 2.2-4.2zM304.9 410.3c-.4 5.8-2.6 10.4-6.4 13.7-3.9 3.3-9 5-15.3 5-6.9 0-12.4-2.3-16.3-7-4-4.7-6-11.1-6-19.2v-3.3c0-5.2.9-9.8 2.7-13.7 1.8-4 4.4-7 7.8-9.1 3.4-2.1 7.4-3.2 11.9-3.2 6.2 0 11.3 1.7 15.1 5 3.8 3.3 6 8 6.6 14.1h-11.1c-.3-3.5-1.2-6-2.9-7.6-1.7-1.6-4.2-2.4-7.6-2.4-3.7 0-6.5 1.3-8.3 4-1.8 2.7-2.8 6.8-2.8 12.4v4.1c0 5.8.9 10.1 2.7 12.8 1.8 2.7 4.6 4 8.4 4 3.4 0 6-.8 7.7-2.4 1.7-1.6 2.7-4 2.9-7.3h10.9zM331.5 392.9l10.1-18.6h12.8l-15.7 26.8 16.1 27.2h-13l-10.4-18.9-10.4 18.9h-13l16.1-27.2-15.7-26.8h12.8l10.3 18.6z"/>
        </g>
        <defs>
            <path id="g" d="M124 95h257v257H124z"/>
        </defs>
        <clipPath id="h">
            <use xlink:href="#g" overflow="visible"/>
        </clipPath>
        <g clip-path="url(#h)">
            <defs>
                <path id="i" d="M163.1 137.8c-47.8 48.4-47.4 126.3 1 174.1s126.3 47.4 174.1-1 47.4-126.3-1-174.1c-24-23.7-55.3-35.6-86.6-35.6-31.7.1-63.5 12.3-87.5 36.6"/>
            </defs>
            <clipPath id="j">
                <use xlink:href="#i" overflow="visible"/>
            </clipPath>
            <linearGradient id="k" gradientUnits="userSpaceOnUse" x1="226.352" y1="273.32" x2="226.609" y2="273.32" gradientTransform="scale(958.1826 -958.1826) rotate(-44.681 -219.46 411.779)">
                <stop offset="0" stop-color="#1f8fbd"/>
                <stop offset=".245" stop-color="#1f87bd"/>
                <stop offset=".528" stop-color="#1f77bd"/>
                <stop offset="1" stop-color="#1c69b5"/>
            </linearGradient>
            <path clip-path="url(#j)" fill="url(#k)" d="M249.1-34.1l266.1 263.2-263.1 266.1L-14 232z"/>
        </g>
        <g clip-path="url(#h)">
            <defs>
                <path id="l" d="M124 95h257v257H124z"/>
            </defs>
            <clipPath id="m">
                <use xlink:href="#l" overflow="visible"/>
            </clipPath>
            <path d="M300.4 152.8c-19.8 0-35.9 16.2-35.9 35.9h12c0-13.3 10.7-23.9 23.9-23.9 13.3 0 24 10.7 24 23.9h12c-.1-19.7-16.2-35.9-36-35.9m0 30c-3.3 0-6 2.7-6 6s2.7 6 6 6 6-2.7 6-6-2.7-6-6-6m-101.8 11.9c-16.5 0-29.9 13.5-29.9 29.9v59.9h12v-59.9c0-10 8-18 18-18s18 8 18 18v59.9h12v-59.9c0-10 8-18 18-18s18 8 18 18v24c0 19.8 16.2 37.9 35.9 37.9 19.8 0 35.9-18.1 35.9-37.9v-47.9h-12v47.9c0 13.3-10.7 27.1-24 27.1s-23.9-13.8-23.9-27.1v-24c0-16.5-13.5-29.9-29.9-29.9-9.8 0-18.5 4.8-23.9 12.2-5.7-7.3-14.4-12.2-24.2-12.2" clip-path="url(#m)" fill="#fff"/>
        </g>
    </g>
</svg>
