<?xml version="1.0" encoding="utf-8"?>
<svg version="1.1"
	 id="MSCZ" xmlns:cc="http://creativecommons.org/ns#" xmlns:dc="http://purl.org/dc/elements/1.1/" xmlns:rdf="http://www.w3.org/1999/02/22-rdf-syntax-ns#"
	 xmlns="http://www.w3.org/2000/svg" xmlns:xlink="http://www.w3.org/1999/xlink" x="0px" y="0px" viewBox="0 0 500 500"
	 style="enable-background:new 0 0 500 500;" xml:space="preserve">
<g id="Bottom_Shadow">
	
		<linearGradient id="SVGID_1_" gradientUnits="userSpaceOnUse" x1="4480.3159" y1="-36751.5078" x2="4480.3159" y2="-39127.332" gradientTransform="matrix(6.732500e-02 0 0 -1.470000e-02 -51.6383 -98.4491)">
		<stop  offset="0" style="stop-color:#000000;stop-opacity:0"/>
		<stop  offset="0.5" style="stop-color:#000000"/>
		<stop  offset="1" style="stop-color:#000000;stop-opacity:0"/>
	</linearGradient>
	<rect x="91" y="441.8" style="opacity:0.3;fill:url(#SVGID_1_);enable-background:new    ;" width="318" height="34.9"/>
	
		<radialGradient id="SVGID_2_" cx="-5423.1597" cy="-37925.25" r="1145.9263" gradientTransform="matrix(-2.304000e-02 0 0 -1.470000e-02 -34.6442 -98.4491)" gradientUnits="userSpaceOnUse">
		<stop  offset="0" style="stop-color:#000000"/>
		<stop  offset="1" style="stop-color:#000000;stop-opacity:0"/>
	</radialGradient>
	<path style="opacity:0.3;fill:url(#SVGID_2_);enable-background:new    ;" d="M91,441.8v34.9c-11.6,0.1-28.1-7.8-28.1-17.5
		C62.9,449.6,75.9,441.8,91,441.8z"/>
	
		<radialGradient id="SVGID_3_" cx="18969.9805" cy="-37925.25" r="1145.9263" gradientTransform="matrix(2.304000e-02 0 0 -1.470000e-02 -27.3718 -98.4491)" gradientUnits="userSpaceOnUse">
		<stop  offset="0" style="stop-color:#000000"/>
		<stop  offset="1" style="stop-color:#000000;stop-opacity:0"/>
	</radialGradient>
	<path style="opacity:0.3;fill:url(#SVGID_3_);enable-background:new    ;" d="M409,441.8v34.9c11.6,0.1,28.1-7.8,28.1-17.5
		C437.1,449.6,424.1,441.8,409,441.8z"/>
</g>
<g id="Paper_1_">
	
		<linearGradient id="Backing_1_" gradientUnits="userSpaceOnUse" x1="249.1362" y1="-8.5653" x2="249.1362" y2="451.4409" gradientTransform="matrix(0.8075 0 0 -0.8948 48.8225 430.9744)">
		<stop  offset="0" style="stop-color:#AAAAAA"/>
		<stop  offset="1" style="stop-color:#C8C8C8"/>
	</linearGradient>
	<path id="Backing" style="fill:#FFFFFF;stroke:url(#Backing_1_);stroke-width:0.9999;stroke-linejoin:round;" d="M79.5,31.6h234.4
		c13.7,4.6,87.3,57.5,106.6,94.2v336.3h-341V31.6L79.5,31.6z"/>
	
		<radialGradient id="Shadow_1_" cx="1158.9465" cy="1055.7778" r="1365.3397" gradientTransform="matrix(0.3684 0 0 0.3997 -38.4544 -363.7606)" gradientUnits="userSpaceOnUse">
		<stop  offset="0" style="stop-color:#000000;stop-opacity:0.2812"/>
		<stop  offset="0.1885" style="stop-color:#000000;stop-opacity:7.812500e-02"/>
		<stop  offset="0.2572" style="stop-color:#000000;stop-opacity:2.343800e-02"/>
		<stop  offset="0.3011" style="stop-color:#000000;stop-opacity:0"/>
		<stop  offset="1" style="stop-color:#E1E2E3;stop-opacity:0"/>
	</radialGradient>
	<path id="Shadow" style="fill:url(#Shadow_1_);" d="M83.1,460.5c-2,0-3.6-1.8-3.6-3.9V34.3c0-2.2,0.7-2.7,2.7-2.7
		c40.4,0.6,154.8,0,232.9,0.5C368,62.8,408,107,420,124.3c2.4,44.8,0.5,334.9,0.5,334.9c0,2.2-1.9,2.8-5.8,2.8L83.1,460.5
		L83.1,460.5z"/>
	
		<linearGradient id="Fold_2_" gradientUnits="userSpaceOnUse" x1="343.5247" y1="409.8204" x2="377.6842" y2="435.4695" gradientTransform="matrix(0.9977 0 0 -1.0407 3.729868e-02 527.2271)">
		<stop  offset="0" style="stop-color:#FEFEFE"/>
		<stop  offset="1" style="stop-color:#CBCBCB"/>
	</linearGradient>
	<path id="Fold_1_" style="fill:url(#Fold_2_);" d="M289.8,32c27,0,32.6,61.4,31.4,77.8c-0.2,2.3,1.8,4.3,4.1,4.1
		c19.6-1.2,95-2.6,94.3,36.7c0.2-11.2,0.9-15.7,0.6-23.9C410.5,101,333.2,38.2,314.5,34"/>
</g>
<g id="Content">
	<g>
		<path style="fill:#989898;" d="M164.8,374.3l13.9,39.2l13.8-39.2h14.6v54H196v-14.8l1.1-25.5l-14.6,40.3h-7.6l-14.5-40.2l1.1,25.5
			v14.8h-11.1v-54H164.8z"/>
		<path style="fill:#989898;" d="M244.9,414.1c0-2.1-0.7-3.7-2.2-4.8c-1.5-1.1-4.2-2.3-8-3.6c-3.9-1.2-6.9-2.5-9.2-3.7
			c-6.1-3.3-9.2-7.8-9.2-13.4c0-2.9,0.8-5.5,2.5-7.8c1.6-2.3,4-4.1,7.1-5.4c3.1-1.3,6.5-1.9,10.4-1.9c3.9,0,7.3,0.7,10.3,2.1
			c3,1.4,5.4,3.4,7,5.9c1.7,2.5,2.5,5.4,2.5,8.7h-11.1c0-2.5-0.8-4.4-2.3-5.8s-3.7-2.1-6.6-2.1c-2.7,0-4.8,0.6-6.3,1.7
			c-1.5,1.2-2.3,2.7-2.3,4.5c0,1.8,0.9,3.2,2.7,4.4c1.8,1.2,4.4,2.3,7.8,3.3c6.3,1.9,10.9,4.3,13.8,7.1c2.9,2.8,4.3,6.3,4.3,10.5
			c0,4.7-1.8,8.3-5.3,11c-3.5,2.7-8.3,4-14.3,4c-4.2,0-7.9-0.8-11.4-2.3s-6-3.6-7.8-6.3c-1.8-2.6-2.7-5.7-2.7-9.2h11.2
			c0,6,3.6,8.9,10.7,8.9c2.6,0,4.7-0.5,6.2-1.6S244.9,416.1,244.9,414.1z"/>
		<path style="fill:#989898;" d="M306,410.3c-0.4,5.8-2.6,10.4-6.4,13.7c-3.9,3.3-9,5-15.3,5c-6.9,0-12.4-2.3-16.3-7
			c-4-4.7-6-11.1-6-19.2v-3.3c0-5.2,0.9-9.8,2.7-13.7c1.8-4,4.4-7,7.8-9.1c3.4-2.1,7.4-3.2,11.9-3.2c6.2,0,11.3,1.7,15.1,5
			c3.8,3.3,6,8,6.6,14.1h-11.1c-0.3-3.5-1.2-6-2.9-7.6c-1.7-1.6-4.2-2.4-7.6-2.4c-3.7,0-6.5,1.3-8.3,4c-1.8,2.7-2.8,6.8-2.8,12.4
			v4.1c0,5.8,0.9,10.1,2.7,12.8c1.8,2.7,4.6,4,8.4,4c3.4,0,6-0.8,7.7-2.4c1.7-1.6,2.7-4,2.9-7.3H306z"/>
		<path style="fill:#989898;" d="M325.1,419.4h27.2v8.9h-41.2v-6.5l26.7-38.5h-26.7v-9h40.5v6.4L325.1,419.4z"/>
	</g>
	<g id="Musescore_Icon">
		<g>
			<defs>
				<rect id="SVGID_4_" x="124" y="95" width="257" height="257"/>
			</defs>
			<clipPath id="SVGID_5_">
				<use xlink:href="#SVGID_4_"  style="overflow:visible;"/>
			</clipPath>
			<g style="clip-path:url(#SVGID_5_);">
				<defs>
					<path id="SVGID_6_" d="M163.1,137.8c-47.8,48.4-47.4,126.3,1,174.1c48.4,47.8,126.3,47.4,174.1-1c47.8-48.4,47.4-126.3-1-174.1
						c-24-23.7-55.3-35.6-86.6-35.6C218.9,101.3,187.1,113.5,163.1,137.8"/>
				</defs>
				<clipPath id="SVGID_7_">
					<use xlink:href="#SVGID_6_"  style="overflow:visible;"/>
				</clipPath>
				
					<linearGradient id="SVGID_8_" gradientUnits="userSpaceOnUse" x1="226.3522" y1="273.3203" x2="226.6092" y2="273.3203" gradientTransform="matrix(681.2962 673.7576 673.7576 -681.2962 -338204.5312 33846.5469)">
					<stop  offset="0" style="stop-color:#1F8FBD"/>
					<stop  offset="0.2449" style="stop-color:#1F87BD"/>
					<stop  offset="0.5276" style="stop-color:#1F77BD"/>
					<stop  offset="1" style="stop-color:#1C69B5"/>
				</linearGradient>
				<polygon style="clip-path:url(#SVGID_7_);fill:url(#SVGID_8_);" points="249.1,-34.1 515.2,229.1 252.1,495.2 -14,232 				"/>
			</g>
			<g style="clip-path:url(#SVGID_5_);">
				<defs>
					<rect id="SVGID_9_" x="124" y="95" width="257" height="257"/>
				</defs>
				<clipPath id="SVGID_10_">
					<use xlink:href="#SVGID_9_"  style="overflow:visible;"/>
				</clipPath>
				<path style="clip-path:url(#SVGID_10_);fill:#FFFFFF;" d="M300.4,152.8c-19.8,0-35.9,16.2-35.9,35.9h12
					c0-13.3,10.7-23.9,23.9-23.9c13.3,0,24,10.7,24,23.9h12C336.3,169,320.2,152.8,300.4,152.8 M300.4,182.8c-3.3,0-6,2.7-6,6
					c0,3.3,2.7,6,6,6c3.3,0,6-2.7,6-6C306.4,185.5,303.7,182.8,300.4,182.8 M198.6,194.7c-16.5,0-29.9,13.5-29.9,29.9v59.9h12v-59.9
					c0-10,8-18,18-18c10,0,18,8,18,18v59.9h12v-59.9c0-10,8-18,18-18s18,8,18,18v18v6c0,19.8,16.2,37.9,35.9,37.9
					c19.8,0,35.9-18.1,35.9-37.9v-47.9h-12v47.9c0,13.3-10.7,27.1-24,27.1c-13.3,0-23.9-13.8-23.9-27.1v-18v-6
					c0-16.5-13.5-29.9-29.9-29.9c-9.8,0-18.5,4.8-23.9,12.2C217.1,199.6,208.4,194.7,198.6,194.7"/>
			</g>
		</g>
	</g>
</g>
</svg>
