<svg xmlns="http://www.w3.org/2000/svg" xmlns:xlink="http://www.w3.org/1999/xlink" version="1.1" viewBox="0 0 512 512">
  <defs>
    <linearGradient id="g">
      <stop offset="0" stop-opacity="0.5"/>
      <stop offset="0.01" stop-opacity="0.3452"/>
      <stop offset="0.02" stop-opacity="0.3056"/>
      <stop offset="0.04" stop-opacity="0.2567"/>
      <stop offset="0.08" stop-opacity="0.1976"/>
      <stop offset="0.16" stop-opacity="0.1294"/>
      <stop offset="0.32" stop-opacity="0.0591"/>
      <stop offset="0.64" stop-opacity="0.0079"/>
      <stop offset="1" stop-opacity="0"/>
    </linearGradient>

    <linearGradient id="gp"
      x1="1" x2="0" y1="0" y2="1"
      gradientTransform="scale(0.90910,0.66667) translate(-0.2,0.2)"
      xlink:href="#g"/>

    <linearGradient id="gf"
        x1="1" x2="0" y1="0" y2="1"
        gradientTransform="scale(0.33333) translate(-0.50,0.50)"
        xlink:href="#g"/>

    <filter id="fp">
      <feGaussianBlur in="SourceAlpha" stdDeviation="6"/>
      <feOffset dx="-2" dy="2"/>
      <feComponentTransfer>
        <feFuncA type="linear" slope="0.5"/>
      </feComponentTransfer>
      <feMerge>
        <feMergeNode/>
        <feMergeNode in="SourceGraphic"/>
      </feMerge>
    </filter>

    <filter id="ff">
      <feGaussianBlur in="SourceAlpha" stdDeviation="8"/>
      <feOffset dx="-5" dy="5"/>
      <feComponentTransfer>
        <feFuncA type="linear" slope="0.5"/>
      </feComponentTransfer>
      <feMerge>
        <feMergeNode/>
        <feMergeNode in="SourceGraphic"/>
      </feMerge>
    </filter>

    <path id="page" d="m 80,16 0,464 352,0 0,-224 c 0,-48 1,-81 -19,-101 l -120,-120 c -20,-20 -53,-19 -101,-19 z"/>
    <path id="fold" d="m 293,35 c 20,20 19,53 19,101 c 48,0 81,-1 101,19 z"/>
  </defs>

  <use xlink:href="#page" fill="#FFF" filter="url(#fp)"/>
  <use xlink:href="#page" fill="url(#gp)"/>
  <!-- YOUR CONTENT HERE -->
  <g fill="#1F74BD" transform="translate(128,164) scale(0.3925)">
    <!-- BEGIN ../resources/mu.svg -->
    <path id="mu" d="M512.51 0C435.6 0 372.74 62.86 372.74 139.78h46.59a93.18 93.18 0 1 1 186.36 0h46.6C652.29 62.86 589.43 0 512.51 0zm0 116.48a23.3 23.3 0 1 0 23.3 23.3 23.3 23.3 0 0 0-23.3-23.3zm-396 46.59C52.43 163.07 0 215.5 0 279.55v233h46.59v-233a69.89 69.89 0 0 1 139.78 0v233H233v-233a69.89 69.89 0 1 1 139.78 0v93.19c0 76.91 62.86 147.35 139.77 147.35s139.78-70.44 139.78-147.35V186.37h-46.6v186.37c0 51.72-41.45 105.3-93.18 105.3s-93.18-53.58-93.18-105.3v-93.19c0-64.05-52.43-116.48-116.48-116.48-38.17 0-71.91 18.86-93.19 47.46-21.32-28.6-55.05-47.46-93.22-47.46z"/>
    <!-- END ../resources/mu.svg -->
  </g>
  <!-- <text x="255" y="360" font-size="96" font-weight="bold" font-family="Roboto" text-anchor="middle" fill="#989898">MSCZ</text> -->
  <text x="255" y="456" font-size="96" font-weight="bold" font-family="Roboto" text-anchor="middle" fill="#989898">@TYPE@</text>
  <use xlink:href="#fold" fill="#FFF" filter="url(#ff)"/>
  <use xlink:href="#fold" fill="url(#gf)"/>
</svg>
