<svg xmlns="http://www.w3.org/2000/svg" xmlns:xlink="http://www.w3.org/1999/xlink" viewBox="0 0 500 500">
    <linearGradient id="a" gradientUnits="userSpaceOnUse" x1="5311.925" y1="33041.039" x2="5311.925" y2="35415.188" gradientTransform="matrix(.06732 0 0 .0147 -107.599 -43.903)">
        <stop offset="0" stop-opacity="0"/>
        <stop offset=".5"/>
        <stop offset="1" stop-opacity="0"/>
    </linearGradient>
    <path d="M91 441.8h318v34.9H91v-34.9z" opacity=".3" fill="url(#a)"/>
    <radialGradient id="b" cx="-8087.327" cy="34214.59" r="1145.926" gradientTransform="matrix(-.02304 0 0 .0147 -96.026 -43.903)" gradientUnits="userSpaceOnUse">
        <stop offset="0"/>
        <stop offset="1" stop-opacity="0"/>
    </radialGradient>
    <path d="M91 441.8v34.9c-11.6.1-28.1-7.8-28.1-17.5 0-9.6 13-17.4 28.1-17.4z" opacity=".3" fill="url(#b)"/>
    <radialGradient id="c" cx="21514.146" cy="34214.59" r="1145.926" gradientTransform="matrix(.02304 0 0 .0147 -85.99 -43.903)" gradientUnits="userSpaceOnUse">
        <stop offset="0"/>
        <stop offset="1" stop-opacity="0"/>
    </radialGradient>
    <path d="M409 441.8v34.9c11.6.1 28.1-7.8 28.1-17.5 0-9.6-13-17.4-28.1-17.4z" opacity=".3" fill="url(#c)"/>
    <linearGradient id="d" gradientUnits="userSpaceOnUse" x1="263.44" y1="379.393" x2="263.44" y2="-80.613" gradientTransform="matrix(.8075 0 0 .8948 37.272 99.157)">
        <stop offset="0" stop-color="#aaa"/>
        <stop offset="1" stop-color="#c8c8c8"/>
    </linearGradient>
    <path d="M79.5 31.6h234.4c13.7 4.6 87.3 57.5 106.6 94.2v336.3h-341V31.6z" fill="#fff" stroke="url(#d)" stroke-linejoin="round"/>
    <radialGradient id="e" cx="1261.813" cy="-464.163" r="1365.34" gradientTransform="matrix(.3684 0 0 -.3997 -76.35 -127.292)" gradientUnits="userSpaceOnUse">
        <stop offset="0" stop-opacity=".281"/>
        <stop offset=".189" stop-opacity=".078"/>
        <stop offset=".257" stop-opacity=".023"/>
        <stop offset=".301" stop-opacity="0"/>
        <stop offset="1" stop-color="#e1e2e3" stop-opacity="0"/>
    </radialGradient>
    <path d="M83.1 460.5c-2 0-3.6-1.8-3.6-3.9V34.3c0-2.2.7-2.7 2.7-2.7 40.4.6 154.8 0 232.9.5C368 62.8 408 107 420 124.3c2.4 44.8.5 334.9.5 334.9 0 2.2-1.9 2.8-5.8 2.8l-331.6-1.5z" fill="url(#e)"/>
    <linearGradient id="f" gradientUnits="userSpaceOnUse" x1="343.624" y1="-29.486" x2="377.783" y2="-55.136" gradientTransform="matrix(.9977 0 0 1.0407 -.101 131.36)">
        <stop offset="0" stop-color="#fefefe"/>
        <stop offset="1" stop-color="#cbcbcb"/>
    </linearGradient>
    <path d="M289.8 32c27 0 32.6 61.4 31.4 77.8-.2 2.3 1.8 4.3 4.1 4.1 19.6-1.2 95-2.6 94.3 36.7.2-11.2.9-15.7.6-23.9-9.7-25.7-87-88.5-105.7-92.7" fill="url(#f)"/>
    <g>
        <path d="M79.5 371.3h341V431h-341v-59.7z" fill="none"/>
        <text transform="translate(180.605 428.299)" fill="#989898" font-family="Roboto-Bold" font-size="76">
            TPE
        </text>
        <image xlink:href="../resources/musicxml-logo.svg" width="240" height="250.031" preserveAspectRatio="none" x="128.567" y="96.326" image-rendering="optimizeSpeed"/>
    </g>
</svg>
