<svg xmlns="http://www.w3.org/2000/svg" viewBox="0 0 500 500">
    <linearGradient id="a" gradientUnits="userSpaceOnUse" x1="4480.316" y1="-36751.508" x2="4480.316" y2="-39127.332" gradientTransform="matrix(.06732 0 0 -.0147 -51.638 -98.45)">
        <stop offset="0" stop-opacity="0"/>
        <stop offset=".5"/>
        <stop offset="1" stop-opacity="0"/>
    </linearGradient>
    <path opacity=".3" fill="url(#a)" d="M91 441.8h318v34.9H91z"/>
    <radialGradient id="b" cx="-5423.16" cy="-37925.25" r="1145.926" gradientTransform="matrix(-.02304 0 0 -.0147 -34.644 -98.45)" gradientUnits="userSpaceOnUse">
        <stop offset="0"/>
        <stop offset="1" stop-opacity="0"/>
    </radialGradient>
    <path d="M91 441.8v34.9c-11.6.1-28.1-7.8-28.1-17.5 0-9.6 13-17.4 28.1-17.4z" opacity=".3" fill="url(#b)"/>
    <radialGradient id="c" cx="18969.981" cy="-37925.25" r="1145.926" gradientTransform="matrix(.02304 0 0 -.0147 -27.372 -98.45)" gradientUnits="userSpaceOnUse">
        <stop offset="0"/>
        <stop offset="1" stop-opacity="0"/>
    </radialGradient>
    <path d="M409 441.8v34.9c11.6.1 28.1-7.8 28.1-17.5 0-9.6-13-17.4-28.1-17.4z" opacity=".3" fill="url(#c)"/>
    <g>
        <linearGradient id="d" gradientUnits="userSpaceOnUse" x1="249.136" y1="-8.565" x2="249.136" y2="451.441" gradientTransform="matrix(.8075 0 0 -.8948 48.822 430.974)">
            <stop offset="0" stop-color="#aaa"/>
            <stop offset="1" stop-color="#c8c8c8"/>
        </linearGradient>
        <path d="M79.5 31.6h234.4c13.7 4.6 87.3 57.5 106.6 94.2v336.3h-341V31.6z" fill="#fff" stroke="url(#d)" stroke-linejoin="round"/>
        <radialGradient id="e" cx="1158.947" cy="1055.778" r="1365.34" gradientTransform="matrix(.3684 0 0 .3997 -38.454 -363.76)" gradientUnits="userSpaceOnUse">
            <stop offset="0" stop-opacity=".281"/>
            <stop offset=".189" stop-opacity=".078"/>
            <stop offset=".257" stop-opacity=".023"/>
            <stop offset=".301" stop-opacity="0"/>
            <stop offset="1" stop-color="#e1e2e3" stop-opacity="0"/>
        </radialGradient>
        <path d="M83.1 460.5c-2 0-3.6-1.8-3.6-3.9V34.3c0-2.2.7-2.7 2.7-2.7 40.4.6 154.8 0 232.9.5C368 62.8 408 107 420 124.3c2.4 44.8.5 334.9.5 334.9 0 2.2-1.9 2.8-5.8 2.8l-331.6-1.5z" fill="url(#e)"/>
        <linearGradient id="f" gradientUnits="userSpaceOnUse" x1="343.525" y1="409.82" x2="377.684" y2="435.469" gradientTransform="matrix(.9977 0 0 -1.0407 .037 527.227)">
            <stop offset="0" stop-color="#fefefe"/>
            <stop offset="1" stop-color="#cbcbcb"/>
        </linearGradient>
        <path d="M289.8 32c27 0 32.6 61.4 31.4 77.8-.2 2.3 1.8 4.3 4.1 4.1 19.6-1.2 95-2.6 94.3 36.7.2-11.2.9-15.7.6-23.9-9.7-25.7-87-88.5-105.7-92.7" fill="url(#f)"/>
    </g>
    <g>
        <g fill="#989898">
            <path d="M158.1 374.3l13.9 39.2 13.8-39.2h14.6v54h-11.2v-14.8l1.1-25.5-14.6 40.3h-7.6l-14.5-40.2 1.1 25.5v14.8h-11.1v-54h14.5zM229.4 392.9l10.1-18.6h12.8l-15.7 26.8 16.1 27.2h-13l-10.4-18.9-10.4 18.9h-13l16.1-27.2-15.7-26.8h12.8l10.3 18.6zM272.9 374.3l13.9 39.2 13.8-39.2h14.6v54H304v-14.8l1.1-25.5-14.6 40.3H283l-14.5-40.2 1.1 25.5v14.8h-11.1v-54h14.4zM336.1 419.4h23.6v8.9H325v-54h11.1v45.1z"/>
        </g>
        <path d="M140.5 224.6L197 196v16.4l-39 19.2 38.9 19.2.1 16.2-56.4-28.6v-13.8zm219 13.9L303 267v-16.3l39-19.2-38.9-19.2-.1-16.3 56.4 28.6v13.9zm-103.9-4.1c-3.4.7-6.5 2.6-9.4 5.7-3 3.1-4.6 6.6-4.8 10.5-.2 2.5.5 5.3 1.8 8.4 1.4 3.1 3.6 5.5 6.6 7.1 1 .3 1.5.9 1.4 1.7 0 .3-.4.5-1.3.7-4.8-1.6-8.7-4.7-11.5-9-2.9-4.4-4.2-9.2-3.9-14.5.5-5.7 2.6-11 6.1-15.6 3.6-4.7 7.9-7.9 13.2-9.7l-2.4-20.1c-8.8 6.5-16 13.5-21.8 20.9-5.7 7.4-9 15.6-9.8 24.7-.2 4.1.4 8.1 1.6 12 1.3 4 3.3 7.6 6.1 11 5.7 6.7 13.4 10.6 23 11.6 3.3 0 6.8-.4 10.7-1.1-.2-.1-5.6-44.3-5.6-44.3zm3.9-.3l5.6 43.5c8.5-2.9 13.2-10.1 13.9-21.6-.2-3.9-1.1-7.4-2.7-10.6-1.6-3.3-3.8-5.9-6.7-7.9-2.9-2-6.2-3.1-10.1-3.4zm-7.2-58.8c1.9-1 4-2.8 6.4-5.4 2.4-2.5 4.8-5.5 7-9 2.3-3.5 4.3-7 5.7-10.7 1.5-3.6 2.3-7.1 2.5-10.3.1-1.4.1-2.8-.1-4-.1-2-.6-3.6-1.5-4.8-1-1.1-2.2-1.7-3.8-1.8-3.2-.2-6.3 1.6-9.1 5.6-2.2 3.4-4.2 7.5-5.7 12.3-1.6 4.8-2.6 9.5-3 14.4-.1 5.4.5 10 1.6 13.7zm-3.6 3c-1.8-9.2-2.6-18.5-2.2-27.9.5-6 1.4-11.6 2.9-16.8 1.4-5.2 3.3-9.6 5.6-13.3 2.3-3.8 4.8-6.6 7.5-8.4 2.4-1.6 4.2-2.4 5.1-2.4.7 0 1.3.4 1.8.9s1.2 1.4 1.9 2.6c5.8 9.9 8.3 21.5 7.4 34.8-.4 6.3-1.6 12.4-3.7 18.4-2 6-4.7 11.6-8.1 16.8-3.5 5.2-7.5 9.7-12 13.5l2.9 22.3c2.4-.1 4-.2 4.9-.2 4.1.3 7.7 1.4 11 3.5 3.3 2 6 4.6 8.2 7.9 2.2 3.2 3.8 6.8 4.8 10.8 1 4 1.4 8.1 1.1 12.4-.4 6.6-2.5 12.5-6.2 17.7-3.7 5.2-9 8.8-15.9 10.9.2 2.8.7 6.8 1.5 11.9.7 5.2 1.3 9.3 1.6 12.4.3 3.1.4 6 .2 8.8-.3 4.4-1.6 8.2-3.9 11.5-2.3 3.3-5.3 5.8-9 7.4-3.6 1.6-7.6 2.3-11.8 2-5.9-.4-11-2.5-15.2-6.2-4.2-3.8-6.3-8.6-6.1-14.5.3-2.6 1.1-5 2.3-7.3 1.2-2.3 2.8-4.1 4.8-5.4 1.9-1.4 4.2-2 6.7-2 2.1.2 4.1.9 5.9 2.2 1.8 1.4 3.2 3.1 4.1 5.2.9 2.1 1.4 4.5 1.2 6.9-.2 3.3-1.5 6-3.8 8.1-2.3 2.1-5.1 3.1-8.4 2.9l-1.2-.1c1.9 3.5 5.2 5.5 10 5.8 2.4.2 4.9-.2 7.5-1 2.6-.9 4.8-2.1 6.7-3.8 1.9-1.7 3.2-3.5 3.8-5.4 1.1-2.2 1.7-5.4 2-9.3.2-2.7.1-5.4-.2-8.1-.3-2.7-.8-6.2-1.6-10.6-.7-4.4-1.3-7.8-1.5-10.1-3.3.6-6.7.8-10.2.6-5.9-.4-11.3-2-16.4-4.9-5.1-2.9-9.4-6.7-13.1-11.4-3.6-4.7-6.4-10-8.2-15.8-1.8-5.8-2.5-11.8-2.2-17.9.6-5.7 2-11.1 4.3-16.1 2.3-5 5.1-9.8 8.5-14.1 3.4-4.4 6.8-8.3 10.4-11.8 3.7-3.7 8.4-8.1 14.3-13.4z" fill="#4d4d4d" stroke="#333" stroke-width=".75"/>
    </g>
</svg>
