<?xml version="1.0" encoding="utf-8"?>
<svg version="1.1"
	 id="MSCZ" xmlns:cc="http://creativecommons.org/ns#" xmlns:dc="http://purl.org/dc/elements/1.1/" xmlns:rdf="http://www.w3.org/1999/02/22-rdf-syntax-ns#"
	 xmlns="http://www.w3.org/2000/svg" xmlns:xlink="http://www.w3.org/1999/xlink" x="0px" y="0px" viewBox="0 0 500 500"
	 style="enable-background:new 0 0 500 500;" xml:space="preserve">
<g id="Bottom_Shadow">
	
		<linearGradient id="SVGID_1_" gradientUnits="userSpaceOnUse" x1="4480.3159" y1="-36751.5078" x2="4480.3159" y2="-39127.332" gradientTransform="matrix(6.732500e-02 0 0 -1.470000e-02 -51.6383 -98.4491)">
		<stop  offset="0" style="stop-color:#000000;stop-opacity:0"/>
		<stop  offset="0.5" style="stop-color:#000000"/>
		<stop  offset="1" style="stop-color:#000000;stop-opacity:0"/>
	</linearGradient>
	<rect x="91" y="441.8" style="opacity:0.3;fill:url(#SVGID_1_);enable-background:new    ;" width="318" height="34.9"/>
	
		<radialGradient id="SVGID_2_" cx="-5423.1597" cy="-37925.25" r="1145.9263" gradientTransform="matrix(-2.304000e-02 0 0 -1.470000e-02 -34.6442 -98.4491)" gradientUnits="userSpaceOnUse">
		<stop  offset="0" style="stop-color:#000000"/>
		<stop  offset="1" style="stop-color:#000000;stop-opacity:0"/>
	</radialGradient>
	<path style="opacity:0.3;fill:url(#SVGID_2_);enable-background:new    ;" d="M91,441.8v34.9c-11.6,0.1-28.1-7.8-28.1-17.5
		C62.9,449.6,75.9,441.8,91,441.8z"/>
	
		<radialGradient id="SVGID_3_" cx="18969.9805" cy="-37925.25" r="1145.9263" gradientTransform="matrix(2.304000e-02 0 0 -1.470000e-02 -27.3718 -98.4491)" gradientUnits="userSpaceOnUse">
		<stop  offset="0" style="stop-color:#000000"/>
		<stop  offset="1" style="stop-color:#000000;stop-opacity:0"/>
	</radialGradient>
	<path style="opacity:0.3;fill:url(#SVGID_3_);enable-background:new    ;" d="M409,441.8v34.9c11.6,0.1,28.1-7.8,28.1-17.5
		C437.1,449.6,424.1,441.8,409,441.8z"/>
</g>
<g id="Paper_1_">
	
		<linearGradient id="Backing_1_" gradientUnits="userSpaceOnUse" x1="249.1362" y1="-8.5653" x2="249.1362" y2="451.4409" gradientTransform="matrix(0.8075 0 0 -0.8948 48.8225 430.9744)">
		<stop  offset="0" style="stop-color:#AAAAAA"/>
		<stop  offset="1" style="stop-color:#C8C8C8"/>
	</linearGradient>
	<path id="Backing" style="fill:#FFFFFF;stroke:url(#Backing_1_);stroke-width:0.9999;stroke-linejoin:round;" d="M79.5,31.6h234.4
		c13.7,4.6,87.3,57.5,106.6,94.2v336.3h-341V31.6L79.5,31.6z"/>
	
		<radialGradient id="Shadow_1_" cx="1158.9465" cy="1055.7778" r="1365.3397" gradientTransform="matrix(0.3684 0 0 0.3997 -38.4544 -363.7606)" gradientUnits="userSpaceOnUse">
		<stop  offset="0" style="stop-color:#000000;stop-opacity:0.2812"/>
		<stop  offset="0.1885" style="stop-color:#000000;stop-opacity:7.812500e-02"/>
		<stop  offset="0.2572" style="stop-color:#000000;stop-opacity:2.343800e-02"/>
		<stop  offset="0.3011" style="stop-color:#000000;stop-opacity:0"/>
		<stop  offset="1" style="stop-color:#E1E2E3;stop-opacity:0"/>
	</radialGradient>
	<path id="Shadow" style="fill:url(#Shadow_1_);" d="M83.1,460.5c-2,0-3.6-1.8-3.6-3.9V34.3c0-2.2,0.7-2.7,2.7-2.7
		c40.4,0.6,154.8,0,232.9,0.5C368,62.8,408,107,420,124.3c2.4,44.8,0.5,334.9,0.5,334.9c0,2.2-1.9,2.8-5.8,2.8L83.1,460.5
		L83.1,460.5z"/>
	
		<linearGradient id="Fold_2_" gradientUnits="userSpaceOnUse" x1="343.5247" y1="409.8204" x2="377.6842" y2="435.4695" gradientTransform="matrix(0.9977 0 0 -1.0407 3.729868e-02 527.2271)">
		<stop  offset="0" style="stop-color:#FEFEFE"/>
		<stop  offset="1" style="stop-color:#CBCBCB"/>
	</linearGradient>
	<path id="Fold_1_" style="fill:url(#Fold_2_);" d="M289.8,32c27,0,32.6,61.4,31.4,77.8c-0.2,2.3,1.8,4.3,4.1,4.1
		c19.6-1.2,95-2.6,94.3,36.7c0.2-11.2,0.9-15.7,0.6-23.9C410.5,101,333.2,38.2,314.5,34"/>
</g>
<g id="Content">
	<rect x="79.5" y="371.3" style="fill:none;" width="341" height="59.7"/>
	<text transform="matrix(1 0 0 1 157.1157 428.299)" style="fill:#989898; font-family:'Roboto-Bold'; font-size:76px;">TYPE</text>
	<path id="Logo" style="fill:#4D4D4D;stroke:#333333;stroke-width:0.75;" d="M140.5,224.6L197,196v16.4l-39,19.2l38.9,19.2L197,267
		l-56.4-28.6V224.6z M359.5,238.5L303,267v-16.3l39-19.2l-38.9-19.2L303,196l56.4,28.6V238.5z M255.6,234.4
		c-3.4,0.7-6.5,2.6-9.4,5.7c-3,3.1-4.6,6.6-4.8,10.5c-0.2,2.5,0.5,5.3,1.8,8.4c1.4,3.1,3.6,5.5,6.6,7.1c1,0.3,1.5,0.9,1.4,1.7
		c0,0.3-0.4,0.5-1.3,0.7c-4.8-1.6-8.7-4.7-11.5-9c-2.9-4.4-4.2-9.2-3.9-14.5c0.5-5.7,2.6-11,6.1-15.6c3.6-4.7,7.9-7.9,13.2-9.7
		l-2.4-20.1c-8.8,6.5-16,13.5-21.8,20.9c-5.7,7.4-9,15.6-9.8,24.7c-0.2,4.1,0.4,8.1,1.6,12c1.3,4,3.3,7.6,6.1,11
		c5.7,6.7,13.4,10.6,23,11.6c3.3,0,6.8-0.4,10.7-1.1C261,278.6,255.6,234.4,255.6,234.4z M259.5,234.1l5.6,43.5
		c8.5-2.9,13.2-10.1,13.9-21.6c-0.2-3.9-1.1-7.4-2.7-10.6c-1.6-3.3-3.8-5.9-6.7-7.9C266.7,235.5,263.4,234.4,259.5,234.1z
		 M252.3,175.3c1.9-1,4-2.8,6.4-5.4c2.4-2.5,4.8-5.5,7-9c2.3-3.5,4.3-7,5.7-10.7c1.5-3.6,2.3-7.1,2.5-10.3c0.1-1.4,0.1-2.8-0.1-4
		c-0.1-2-0.6-3.6-1.5-4.8c-1-1.1-2.2-1.7-3.8-1.8c-3.2-0.2-6.3,1.6-9.1,5.6c-2.2,3.4-4.2,7.5-5.7,12.3c-1.6,4.8-2.6,9.5-3,14.4
		C250.6,167,251.2,171.6,252.3,175.3L252.3,175.3z M248.7,178.3c-1.8-9.2-2.6-18.5-2.2-27.9c0.5-6,1.4-11.6,2.9-16.8
		c1.4-5.2,3.3-9.6,5.6-13.3c2.3-3.8,4.8-6.6,7.5-8.4c2.4-1.6,4.2-2.4,5.1-2.4c0.7,0,1.3,0.4,1.8,0.9c0.5,0.5,1.2,1.4,1.9,2.6
		c5.8,9.9,8.3,21.5,7.4,34.8c-0.4,6.3-1.6,12.4-3.7,18.4c-2,6-4.7,11.6-8.1,16.8c-3.5,5.2-7.5,9.7-12,13.5l2.9,22.3
		c2.4-0.1,4-0.2,4.9-0.2c4.1,0.3,7.7,1.4,11,3.5c3.3,2,6,4.6,8.2,7.9c2.2,3.2,3.8,6.8,4.8,10.8c1,4,1.4,8.1,1.1,12.4
		c-0.4,6.6-2.5,12.5-6.2,17.7c-3.7,5.2-9,8.8-15.9,10.9c0.2,2.8,0.7,6.8,1.5,11.9c0.7,5.2,1.3,9.3,1.6,12.4c0.3,3.1,0.4,6,0.2,8.8
		c-0.3,4.4-1.6,8.2-3.9,11.5c-2.3,3.3-5.3,5.8-9,7.4c-3.6,1.6-7.6,2.3-11.8,2c-5.9-0.4-11-2.5-15.2-6.2c-4.2-3.8-6.3-8.6-6.1-14.5
		c0.3-2.6,1.1-5,2.3-7.3c1.2-2.3,2.8-4.1,4.8-5.4c1.9-1.4,4.2-2,6.7-2c2.1,0.2,4.1,0.9,5.9,2.2c1.8,1.4,3.2,3.1,4.1,5.2
		c0.9,2.1,1.4,4.5,1.2,6.9c-0.2,3.3-1.5,6-3.8,8.1c-2.3,2.1-5.1,3.1-8.4,2.9l-1.2-0.1c1.9,3.5,5.2,5.5,10,5.8c2.4,0.2,4.9-0.2,7.5-1
		c2.6-0.9,4.8-2.1,6.7-3.8c1.9-1.7,3.2-3.5,3.8-5.4c1.1-2.2,1.7-5.4,2-9.3c0.2-2.7,0.1-5.4-0.2-8.1c-0.3-2.7-0.8-6.2-1.6-10.6
		c-0.7-4.4-1.3-7.8-1.5-10.1c-3.3,0.6-6.7,0.8-10.2,0.6c-5.9-0.4-11.3-2-16.4-4.9c-5.1-2.9-9.4-6.7-13.1-11.4
		c-3.6-4.7-6.4-10-8.2-15.8c-1.8-5.8-2.5-11.8-2.2-17.9c0.6-5.7,2-11.1,4.3-16.1c2.3-5,5.1-9.8,8.5-14.1c3.4-4.4,6.8-8.3,10.4-11.8
		C238.1,188,242.8,183.6,248.7,178.3L248.7,178.3z"/>
</g>
</svg>
