<?xml version="1.0" encoding="UTF-8" standalone="no"?>
<svg
   xmlns:dc="http://purl.org/dc/elements/1.1/"
   xmlns:cc="http://creativecommons.org/ns#"
   xmlns:rdf="http://www.w3.org/1999/02/22-rdf-syntax-ns#"
   xmlns:svg="http://www.w3.org/2000/svg"
   xmlns="http://www.w3.org/2000/svg"
   id="svg2"
   width="24"
   version="1.1"
   height="24">
  <metadata
     id="metadata16">
    <rdf:RDF>
      <cc:Work
         rdf:about="">
        <dc:format>image/svg+xml</dc:format>
        <dc:type
           rdf:resource="http://purl.org/dc/dcmitype/StillImage" />
        <dc:title></dc:title>
      </cc:Work>
    </rdf:RDF>
  </metadata>
  <defs
     id="defs14" />
  <g
     transform="translate(2.3982237,-0.968672)"
     id="g4150">
    <g
       transform="translate(-256.9999,-207)"
       id="g4">
      <path
         d="m 265.5625,209 -3.75,20 13.84375,0 -1.53125,-8 -1.6875,2.90625 L 273,227 l -8.53125,0 2.9375,-16 2.65625,0 0.34375,2 c 0.48059,-0.54077 1.10145,-0.96278 1.8125,-1.21875 0.0526,-0.0189 0.10257,-0.0455 0.15625,-0.0625 C 272.33258,211.56041 271.90625,209 271.90625,209 Z"
         style="fill:#3b3f45;stroke-width:2"
         id="path6" />
      <path
         d="M 274.71875,212.59375 268.125,224 l 1.96875,0 6.09375,-10.5625 -1.46875,-0.84375 z"
         style="fill:#3b3f45"
         id="path8" />
      <path
         d="m 241.07921,216.08603 a 2.0550292,2.0550292 0 1 1 -4.11005,0 2.0550292,2.0550292 0 1 1 4.11005,0 z"
         style="fill:#3b3f45"
         transform="matrix(0.31478243,1.174784,-1.174784,0.31478243,452.34848,-132.79999)"
         id="path10" />
    </g>
    <path
       d="m 4.9735817,17.655054 c -1.217042,0 -2.356126,0.44556 -3.417306,1.33666 -1.061179,0.8911 -1.591768,1.84904 -1.591767,2.87381 -10e-7,0.62377 0.230045,1.12501 0.690138,1.50373 0.460092,0.37872 1.061177,0.56809 1.803261,0.56809 1.217025,0 2.356099,-0.44556 3.417286,-1.33666 1.061188,-0.8911 1.591781,-1.84904 1.591781,-2.87381 0,-0.62377 -0.230047,-1.12502 -0.690141,-1.50373 -0.460094,-0.37873 -1.061187,-0.56809 -1.803252,-0.56809"
       style="fill:#3b3f45"
       id="path6-5" />
  </g>
</svg>
